<svg xmlns="http://www.w3.org/2000/svg" 
  viewBox="0 0 200 200" preserveAspectRatio="xMidYMid meet">
  <defs>

  </defs>
  <path fill-rule="evenodd" fill="#00b4d8" d="M 116.12,183.29 L 113.43,183.29 L 112.54,182.39 L 111.64,182.39 L 109.40,180.15 L 109.40,179.25 L 108.51,178.36 L 108.51,175.67 L 109.40,174.78 L 109.40,173.88 L 111.64,171.64 L 112.54,171.64 L 113.43,170.74 L 116.12,170.74 L 117.01,169.85 L 121.49,169.85 L 122.39,168.95 L 126.87,168.95 L 127.76,168.06 L 132.24,168.06 L 133.13,167.16 L 136.72,167.16 L 137.61,166.27 L 142.09,166.27 L 143.43,164.93 L 143.43,162.24 L 144.33,161.34 L 144.33,158.66 L 145.22,157.76 L 145.22,155.97 L 146.12,155.07 L 146.12,152.39 L 147.01,151.49 L 147.01,148.81 L 147.91,147.91 L 147.91,146.12 L 148.80,145.22 L 148.80,142.54 L 149.70,141.64 L 149.70,138.96 L 150.60,138.06 L 150.60,135.37 L 150.15,134.93 L 148.36,136.72 L 147.46,136.72 L 143.88,140.30 L 142.99,140.30 L 140.30,142.99 L 139.40,142.99 L 136.72,145.67 L 135.82,145.67 L 132.24,149.26 L 131.34,149.26 L 128.66,151.94 L 127.76,151.94 L 125.07,154.63 L 124.18,154.63 L 121.49,157.32 L 120.60,157.32 L 117.91,160.00 L 117.01,160.00 L 113.43,163.58 L 112.54,163.58 L 109.85,166.27 L 108.96,166.27 L 105.37,169.85 L 104.48,169.85 L 101.79,172.54 L 100.90,172.54 L 98.21,175.23 L 97.31,175.23 L 94.63,177.91 L 93.73,177.91 L 91.04,180.60 L 90.15,180.60 L 86.57,183.29 L 83.88,183.29 L 82.99,182.39 L 78.51,182.39 L 77.61,181.49 L 74.03,181.49 L 73.13,180.60 L 68.66,180.60 L 67.76,179.70 L 64.18,179.70 L 63.28,178.81 L 58.81,178.81 L 57.91,177.91 L 53.43,177.91 L 52.54,177.02 L 49.85,177.02 L 46.71,173.88 L 46.71,172.09 L 45.82,171.19 L 45.82,169.40 L 44.92,168.51 L 44.92,165.82 L 44.03,164.93 L 44.03,162.24 L 43.13,161.34 L 43.13,159.55 L 42.24,158.66 L 42.24,155.97 L 41.34,155.07 L 41.34,152.39 L 40.45,151.49 L 40.45,149.70 L 39.55,148.81 L 39.55,146.12 L 38.65,145.22 L 38.65,142.54 L 37.76,141.64 L 37.76,138.96 L 36.86,138.06 L 36.86,136.27 L 35.97,135.37 L 35.97,132.69 L 35.07,131.79 L 35.07,129.10 L 34.18,128.21 L 34.18,126.42 L 33.28,125.52 L 33.28,122.84 L 32.39,121.94 L 32.39,119.25 L 31.49,118.36 L 32.39,117.46 L 32.39,115.67 L 33.28,114.78 L 33.28,113.88 L 35.52,112.54 L 45.37,112.54 L 46.27,113.43 L 53.43,113.43 L 54.33,114.33 L 61.49,114.33 L 62.39,115.22 L 70.45,115.22 L 71.34,116.12 L 74.03,116.12 L 74.48,114.78 L 73.58,113.88 L 73.58,89.70 L 74.48,88.81 L 74.48,87.01 L 76.72,84.77 L 81.19,82.98 L 82.99,81.19 L 85.67,80.30 L 87.46,78.51 L 88.36,78.51 L 89.25,77.61 L 91.94,76.71 L 93.73,74.92 L 94.63,74.92 L 97.31,73.13 L 99.10,73.13 L 100.00,72.24 L 100.90,73.13 L 106.27,73.13 L 107.16,74.03 L 111.64,74.03 L 112.54,74.92 L 117.01,74.92 L 117.91,75.82 L 122.39,75.82 L 123.28,76.71 L 128.66,76.71 L 129.55,77.61 L 133.13,77.61 L 134.03,78.51 L 139.40,78.51 L 140.30,79.40 L 144.78,79.40 L 145.67,80.30 L 151.04,80.30 L 151.94,81.19 L 157.31,81.19 L 157.76,80.75 L 157.76,79.85 L 156.86,78.96 L 156.86,60.15 L 155.97,59.25 L 155.97,53.88 L 152.84,52.54 L 151.04,50.75 L 146.57,48.96 L 144.78,47.17 L 140.30,45.37 L 138.51,43.58 L 134.03,41.79 L 132.24,40.00 L 129.55,39.11 L 127.76,37.32 L 125.07,36.42 L 123.28,34.63 L 118.81,32.84 L 117.01,31.05 L 114.33,31.05 L 110.75,34.63 L 109.85,34.63 L 104.48,40.00 L 103.58,40.00 L 99.10,44.48 L 98.21,44.48 L 93.73,48.96 L 92.84,48.96 L 88.36,53.43 L 87.46,53.43 L 82.99,57.91 L 82.09,57.91 L 76.72,63.29 L 75.82,63.29 L 71.34,67.76 L 70.45,67.76 L 65.07,73.14 L 64.18,73.14 L 59.70,77.61 L 58.81,77.61 L 54.33,82.09 L 53.43,82.09 L 42.69,91.94 L 41.79,91.94 L 39.10,94.63 L 37.31,94.63 L 36.42,95.52 L 31.94,93.73 L 29.70,89.70 L 29.70,87.91 L 30.60,87.01 L 30.60,68.21 L 31.49,67.31 L 31.49,50.30 L 32.39,49.40 L 32.39,47.61 L 35.52,44.48 L 36.42,44.48 L 37.31,43.58 L 40.00,42.68 L 41.79,40.89 L 46.27,39.10 L 48.06,37.31 L 50.75,36.42 L 52.54,34.63 L 55.22,33.73 L 57.01,31.94 L 61.49,30.15 L 63.28,28.36 L 67.76,26.57 L 69.55,24.77 L 72.24,23.88 L 74.03,22.09 L 78.51,20.30 L 80.30,18.51 L 81.19,18.51 L 83.88,16.71 L 87.46,16.71 L 91.49,20.75 L 91.49,25.22 L 87.46,29.26 L 82.99,31.05 L 81.19,32.84 L 78.51,33.73 L 76.72,35.52 L 72.24,37.32 L 70.45,39.11 L 67.76,40.00 L 65.97,41.79 L 61.49,43.58 L 59.70,45.37 L 57.01,46.27 L 55.22,48.06 L 50.75,49.85 L 48.96,51.64 L 46.27,52.54 L 44.03,54.78 L 44.03,61.04 L 43.14,61.94 L 43.14,74.48 L 43.58,74.92 L 52.54,66.86 L 53.43,66.86 L 57.91,62.39 L 58.81,62.39 L 63.28,57.91 L 64.18,57.91 L 69.55,52.54 L 70.45,52.54 L 74.93,48.06 L 75.82,48.06 L 81.19,42.68 L 82.09,42.68 L 86.57,38.21 L 87.46,38.21 L 91.94,33.73 L 92.84,33.73 L 98.21,28.36 L 99.10,28.36 L 108.96,19.40 L 109.85,19.40 L 113.43,16.71 L 116.12,16.71 L 117.01,17.61 L 121.49,19.40 L 123.28,21.19 L 125.97,22.09 L 127.76,23.88 L 130.45,24.77 L 132.24,26.57 L 136.72,28.36 L 138.51,30.15 L 142.99,31.94 L 144.78,33.73 L 147.46,34.63 L 149.25,36.42 L 150.15,36.42 L 151.04,37.31 L 153.73,38.21 L 155.52,40.00 L 160.00,41.79 L 161.79,43.58 L 164.48,44.48 L 167.61,47.61 L 167.61,48.51 L 168.51,49.40 L 168.51,65.52 L 169.40,66.42 L 169.40,85.22 L 170.30,86.12 L 170.30,89.70 L 169.40,90.60 L 169.40,92.39 L 167.16,94.63 L 165.37,94.63 L 164.48,95.52 L 163.58,95.52 L 162.69,94.63 L 158.21,94.63 L 157.31,93.73 L 151.94,93.73 L 151.04,92.84 L 146.57,92.84 L 145.67,91.94 L 141.19,91.94 L 140.30,91.05 L 135.82,91.05 L 134.93,90.15 L 130.45,90.15 L 129.55,89.26 L 126.87,89.26 L 126.42,89.70 L 126.42,114.78 L 125.52,115.67 L 125.52,116.57 L 122.39,119.70 L 117.91,121.49 L 116.12,123.29 L 111.64,125.08 L 109.85,126.87 L 107.16,127.76 L 105.37,129.55 L 104.48,129.55 L 101.79,131.35 L 97.31,131.35 L 96.42,130.45 L 89.25,130.45 L 88.36,129.55 L 80.30,129.55 L 79.40,128.66 L 72.24,128.66 L 71.34,127.76 L 64.18,127.76 L 63.28,126.87 L 56.12,126.87 L 55.22,125.97 L 48.06,125.97 L 47.16,125.08 L 46.72,125.52 L 46.72,128.21 L 47.61,129.10 L 47.61,131.79 L 48.51,132.69 L 48.51,134.48 L 49.40,135.37 L 49.40,138.06 L 50.30,138.96 L 50.30,140.75 L 51.20,141.64 L 51.20,144.33 L 52.09,145.22 L 52.09,147.91 L 52.99,148.81 L 52.99,150.60 L 53.88,151.49 L 53.88,154.18 L 54.78,155.07 L 54.78,157.76 L 55.67,158.66 L 55.67,161.34 L 56.57,162.24 L 56.57,164.03 L 57.46,164.93 L 57.46,165.82 L 57.91,166.27 L 62.39,166.27 L 63.28,167.16 L 67.76,167.16 L 68.66,168.06 L 72.24,168.06 L 73.13,168.95 L 77.61,168.95 L 78.51,169.85 L 84.78,169.85 L 87.46,167.16 L 88.36,167.16 L 91.04,164.48 L 91.94,164.48 L 94.63,161.79 L 95.52,161.79 L 98.21,159.10 L 99.10,159.10 L 102.69,155.52 L 103.58,155.52 L 106.27,152.83 L 107.16,152.83 L 109.85,150.15 L 110.75,150.15 L 113.43,147.46 L 114.33,147.46 L 117.01,144.77 L 117.91,144.77 L 121.49,141.19 L 122.39,141.19 L 125.07,138.51 L 125.97,138.51 L 129.55,134.92 L 130.45,134.92 L 132.24,133.13 L 133.13,133.13 L 136.72,129.55 L 137.61,129.55 L 140.30,126.86 L 141.19,126.86 L 143.88,124.18 L 144.78,124.18 L 148.36,120.60 L 149.25,120.60 L 151.94,117.91 L 152.84,117.91 L 159.10,112.54 L 164.48,112.54 L 167.61,115.67 L 167.61,117.46 L 168.51,118.36 L 168.51,119.25 L 167.61,120.15 L 167.61,122.84 L 166.72,123.73 L 166.72,125.52 L 165.82,126.42 L 165.82,129.10 L 164.93,130.00 L 164.93,131.79 L 164.03,132.69 L 164.03,135.37 L 163.14,136.27 L 163.14,138.96 L 162.24,139.85 L 162.24,142.54 L 161.35,143.43 L 161.35,145.22 L 160.45,146.12 L 160.45,148.81 L 159.55,149.70 L 159.55,151.49 L 158.66,152.39 L 158.66,155.07 L 157.76,155.97 L 157.76,158.66 L 156.87,159.55 L 156.87,162.24 L 155.97,163.13 L 155.97,164.93 L 155.08,165.82 L 155.08,168.51 L 154.18,169.40 L 153.29,173.88 L 150.15,177.02 L 147.46,177.02 L 146.57,177.91 L 142.99,177.91 L 142.09,178.81 L 137.61,178.81 L 136.72,179.70 L 132.24,179.70 L 131.34,180.60 L 126.87,180.60 L 125.97,181.49 L 121.49,181.49 L 120.60,182.39 L 117.01,182.39 L 116.12,183.29 Z M 101.34,117.46 L 101.79,117.01 L 102.69,117.01 L 104.48,115.22 L 105.37,115.22 L 106.27,114.33 L 107.16,114.33 L 108.96,112.54 L 109.85,112.54 L 110.75,111.64 L 111.64,111.64 L 112.54,110.74 L 113.43,110.74 L 113.88,110.30 L 113.88,94.18 L 112.54,92.84 L 111.64,92.84 L 110.75,91.94 L 109.85,91.94 L 108.06,90.15 L 107.16,90.15 L 106.27,89.26 L 105.37,89.26 L 103.58,87.46 L 102.69,87.46 L 100.00,85.67 L 99.10,86.57 L 98.21,86.57 L 96.42,88.36 L 95.52,88.36 L 94.63,89.26 L 93.73,89.26 L 92.84,90.15 L 91.94,90.15 L 90.15,91.94 L 89.25,91.94 L 88.36,92.84 L 87.46,92.84 L 86.12,94.18 L 86.12,109.40 L 88.36,111.64 L 89.25,111.64 L 90.15,112.54 L 91.04,112.54 L 92.84,114.33 L 93.73,114.33 L 94.63,115.22 L 95.52,115.22 L 96.42,116.12 L 97.31,116.12 L 99.10,117.91 L 100.90,117.91 L 101.34,117.46 Z"/>
</svg>